<?xml version="1.0" encoding="UTF-8" standalone="no"?>
<!-- Created with Inkscape (http://www.inkscape.org/) -->

<svg
   xmlns:dc="http://purl.org/dc/elements/1.1/"
   xmlns:cc="http://creativecommons.org/ns#"
   xmlns:rdf="http://www.w3.org/1999/02/22-rdf-syntax-ns#"
   xmlns:svg="http://www.w3.org/2000/svg"
   xmlns="http://www.w3.org/2000/svg"
   xmlns:sodipodi="http://sodipodi.sourceforge.net/DTD/sodipodi-0.dtd"
   xmlns:inkscape="http://www.inkscape.org/namespaces/inkscape"
   width="101.01923mm"
   height="225.77777mm"
   viewBox="0 0 357.94217 799.99997"
   id="svg2"
   version="1.1"
   inkscape:version="0.91 r13725"
   sodipodi:docname="SailingShip18.svg">
  <defs
     id="defs4">
    <clipPath
       id="id0">
      <path
         inkscape:connector-curvature="0"
         d="m 6500000,15909400 801930,0 c 189250,-89820 580580,-490790 580580,-490790 1077790,-1491570 -269440,-1504410 -269440,-1504410 l -1113070,0 -1113070,0 c 0,0 -1347230,12840 -266240,1504410 0,0 388130,400970 577380,490790 l 801930,0 z"
         id="path7" />
    </clipPath>
  </defs>
  <sodipodi:namedview
     id="base"
     pagecolor="#ffffff"
     bordercolor="#666666"
     borderopacity="1.0"
     inkscape:pageopacity="0.0"
     inkscape:pageshadow="2"
     inkscape:zoom="0.83749997"
     inkscape:cx="178.9711"
     inkscape:cy="400.00002"
     inkscape:document-units="px"
     inkscape:current-layer="layer1"
     showgrid="false"
     fit-margin-top="0"
     fit-margin-left="0"
     fit-margin-right="0"
     fit-margin-bottom="0"
     inkscape:window-width="1600"
     inkscape:window-height="837"
     inkscape:window-x="-8"
     inkscape:window-y="-8"
     inkscape:window-maximized="1" />
  <metadata
     id="metadata7">
    <rdf:RDF>
      <cc:Work
         rdf:about="">
        <dc:format>image/svg+xml</dc:format>
        <dc:type
           rdf:resource="http://purl.org/dc/dcmitype/StillImage" />
        <dc:title></dc:title>
      </cc:Work>
    </rdf:RDF>
  </metadata>
  <g
     inkscape:label="Layer 1"
     inkscape:groupmode="layer"
     id="layer1"
     transform="translate(-85.189459,2997.0389)">
    <g
       id="g4845"
       transform="matrix(3.6063349,0,0,3.6063349,-222.03225,5726.2184)">
      <g
         transform="translate(-143.23332,-2579.8971)"
         style="fill:none;stroke:#000000;stroke-width:1px;stroke-linecap:butt;stroke-linejoin:miter;stroke-opacity:1"
         id="g4159">
        <path
           style="fill:none;stroke:#000000;stroke-opacity:1"
           inkscape:connector-curvature="0"
           id="path4036"
           d="M 295.92419,336.95627 277.875,192.6875" />
        <path
           style="fill:none;stroke:#000000;stroke-opacity:1"
           inkscape:connector-curvature="0"
           d="M 305.28079,341.24181 277.875,192.6875"
           id="path4032" />
        <path
           style="fill:none;stroke:#000000;stroke-opacity:1"
           inkscape:connector-curvature="0"
           d="M 253.14423,339.7847 277.89297,192.70649"
           id="path4026" />
        <path
           style="fill:none;stroke:#000000;stroke-opacity:1"
           inkscape:connector-curvature="0"
           d="M 257.38687,338.01694 278.24652,193.76715"
           id="path4028" />
        <path
           style="fill:none;stroke:#000000;stroke-opacity:1"
           inkscape:connector-curvature="0"
           d="M 262.5134,336.07239 278.25,192.9375"
           id="path4030" />
        <path
           style="fill:none;stroke:#000000;stroke-opacity:1"
           inkscape:connector-curvature="0"
           d="M 300.72749,339.0776 277.75,192.6875"
           id="path4034" />
      </g>
      <path
         id="path4094"
         d="m 149.44346,-2244.5132 c 1.75,-4.5 -0.75,-12.25 -0.75,-12.25 3,-1.75 3.25,-8.25 -1.25,-8.25 -4.5,0 -5.5,4.75 -3,7.5 0,0 -1.25,6.75 -0.75,8.75 l 5.75,4.25 z"
         style="fill:#6f3c00;fill-opacity:1;fill-rule:evenodd;stroke:#000000;stroke-width:1px;stroke-linecap:butt;stroke-linejoin:miter;stroke-opacity:1"
         inkscape:connector-curvature="0" />
      <path
         id="path4086"
         d="m 132.76668,-2303.3971 2.25,-114.8661 2.25,114.8661 -4.5,0 z"
         style="fill:#6f3c00;fill-opacity:1;fill-rule:evenodd;stroke:#000000;stroke-width:1px;stroke-linecap:butt;stroke-linejoin:miter;stroke-opacity:1"
         inkscape:connector-curvature="0" />
      <path
         id="path4092"
         d="m 118.64168,-2401.8971 1.125,12.375 c 7.375,-1.75 15.25,-8 15.25,-8 l -0.125,-15.375 c 0,0 -12.375,9.5 -16.25,11 z"
         style="fill:#0053c3;fill-opacity:1;fill-rule:evenodd;stroke:#000000;stroke-width:1px;stroke-linecap:butt;stroke-linejoin:miter;stroke-opacity:1"
         inkscape:connector-curvature="0" />
      <path
         id="path4090"
         d="m 111.14168,-2404.6471 c 0,0 5.15646,-5.017 11.75,-4.875 6.52944,0.1406 10.125,-1.6875 12.25,-4.1875 l -0.125,-4.4375 c 0,0 -4.16172,1.6209 -6.375,2.3125 -2.20879,0.6902 -5.7656,1.4331 -9.5,1.5 -3.73873,0.067 -8.0625,4.25 -8,9.6875 z"
         style="fill:#fd2000;fill-opacity:1;fill-rule:evenodd;stroke:#000000;stroke-width:1px;stroke-linecap:butt;stroke-linejoin:miter;stroke-opacity:1"
         inkscape:connector-curvature="0" />
      <path
         id="path4096"
         d="m 120.07207,-2243.1471 c -1.75,-4.5 3,-13.75 3,-13.75 -3,-1.75 -3.25,-8.25 1.25,-8.25 4.5,0 5.5,4.75 3,7.5 0,0 1.25,6.75 0.75,8.75 l -8,5.75 z"
         style="fill:#6f3c00;fill-opacity:1;fill-rule:evenodd;stroke:#000000;stroke-width:1px;stroke-linecap:butt;stroke-linejoin:miter;stroke-opacity:1"
         inkscape:connector-curvature="0" />
      <path
         id="path4024"
         d="m 104.01668,-2203.8971 c 0,0 -2.94704,-13.534 0.5,-20.5 3.62077,-7.3171 5,-15.25 5,-15.25 0,0 27.95581,-10.6326 22.20581,-33.8826 3.27527,-0.6475 5.71086,-0.4995 8.54419,-0.6174 -8,24.5 22.25,36 22.25,36 0,0 0.63709,5.5258 4.5,11.75 3.93081,6.3335 3.5,15.25 3.5,15.25 -20.76489,16.084 -43.06994,17.1514 -66.5,7.25 z"
         style="fill:#6f3c00;fill-opacity:1;fill-rule:evenodd;stroke:#000000;stroke-width:1px;stroke-linecap:butt;stroke-linejoin:miter;stroke-opacity:1"
         inkscape:connector-curvature="0" />
      <path
         id="path3262"
         d="m 101.51668,-2297.4578 c -18.44454,-16.4038 -7.51832,-46.4964 33,-48.1893 41.27685,-1.7246 57.57322,35.4142 38.32322,49.9142 0,0 2.65776,-19.7939 -36.57322,-19.0392 -38.98744,0.75 -34.75,17.3143 -34.75,17.3143 z"
         style="fill:#fdef72;fill-opacity:1;fill-rule:evenodd;stroke:#000000;stroke-width:1px;stroke-linecap:butt;stroke-linejoin:miter;stroke-opacity:1"
         inkscape:connector-curvature="0" />
      <path
         id="path3932"
         d="m 109.77832,-2239.5821 c -37.99443,-20.9736 -32.18686,-62.9526 25.58843,-64.1699 58.52495,-1.2331 59.83026,44.6222 26.91426,65.2748 13.51659,-11.4613 7.22111,-35.1582 -26.91426,-35.2228 -34.38537,-0.065 -38.57896,28.5889 -25.58843,34.1179 z"
         style="fill:#fdef72;fill-opacity:1;fill-rule:evenodd;stroke:#000000;stroke-width:1px;stroke-linecap:butt;stroke-linejoin:miter;stroke-opacity:1"
         inkscape:connector-curvature="0" />
      <path
         id="path3260"
         d="m 114.51668,-2342.8971 c -15.5,-20.75 -4.22635,-31.76 1,-36.25 7.1115,-6.1096 49.64644,-8.3232 49.64644,-8.3232 -22.625,18.5 -2.04289,48.0303 -2.04289,48.0303 -32.5,-36.125 -48.60355,-3.4571 -48.60355,-3.4571 z"
         style="fill:#fdef72;fill-opacity:1;fill-rule:evenodd;stroke:#000000;stroke-width:1px;stroke-linecap:butt;stroke-linejoin:miter;stroke-opacity:1"
         inkscape:connector-curvature="0" />
    </g>
  </g>
</svg>
