<?xml version="1.0" encoding="utf-8"?>

<!DOCTYPE svg PUBLIC "-//W3C//DTD SVG 1.1//EN" "http://www.w3.org/Graphics/SVG/1.1/DTD/svg11.dtd">
<svg version="1.1"
	 id="svg2" xmlns:cc="http://creativecommons.org/ns#" xmlns:dc="http://purl.org/dc/elements/1.1/" xmlns:rdf="http://www.w3.org/1999/02/22-rdf-syntax-ns#" xmlns:svg="http://www.w3.org/2000/svg"
	 xmlns="http://www.w3.org/2000/svg" xmlns:xlink="http://www.w3.org/1999/xlink" x="0px" y="0px" viewBox="0 0 2531.94 1658.452"
	 enable-background="new 0 0 2531.94 1658.452" xml:space="preserve">
<g id="layer4" transform="translate(-36.47977,-422.85962)">
</g>
<g>
	<g id="g9085" transform="translate(55.489124,1093.7837)">
		<path id="path2749" stroke="#000000" stroke-width="5" d="M1603.615,209.457l-56.453-545.82"/>
		<path id="path2751" stroke="#000000" stroke-width="5" d="M1565.98,209.457l-41.399-545.82"/>
		<path id="path2753" stroke="#000000" stroke-width="5" d="M1645.014,187.748l-86.561-524.111"/>
		<path id="path2755" stroke="#000000" stroke-width="5" d="M1528.345-302.249h15.054l18.818-3.101"/>
		<path id="path2757" stroke="#000000" stroke-width="5" d="M1577.271-243.326l-18.818,6.202h-26.344"/>
		<path id="path2759" stroke="#000000" stroke-width="5" d="M1539.635-184.402h26.345l22.581-6.202"/>
		<path id="path2761" stroke="#000000" stroke-width="5" d="M1543.399-131.681h18.818l30.108-6.203"/>
		<path id="path2763" stroke="#000000" stroke-width="5" d="M1547.162-91.364l26.345,3.101l18.818-3.101"/>
		<path id="path2765" stroke="#000000" stroke-width="5" d="M1547.162-41.744h26.345l30.108-9.304"/>
		<path id="path2767" stroke="#000000" stroke-width="5" d="M1554.689,1.673h33.872l26.345-12.405"/>
		<path id="path2769" stroke="#000000" stroke-width="5" d="M1547.162,48.192l33.872-3.101l45.162-9.304"/>
		<path id="path2771" stroke="#000000" stroke-width="5" d="M1554.689,91.609l41.399-3.101l33.872-6.202"/>
		<path id="path2773" stroke="#000000" stroke-width="5" d="M1558.453,128.824h37.635l37.635-6.202"/>
		<path id="path2775" stroke="#000000" stroke-width="5" d="M1558.453,169.14h45.162l30.108-9.303"/>
		<path id="path2809" stroke="#000000" stroke-width="5" d="M1425.167,266.191l56.453-592.003"/>
		<path id="path2811" stroke="#000000" stroke-width="5" d="M1462.802,266.191l41.399-592.003"/>
		<path id="path2813" stroke="#000000" stroke-width="5" d="M1383.768,242.646l86.561-568.457"/>
		<path id="path2815" stroke="#000000" stroke-width="5" d="M1500.438-288.811h-15.054l-18.818-3.364"/>
		<path id="path2817" stroke="#000000" stroke-width="5" d="M1451.512-224.902l18.818,6.727h26.345"/>
		<path id="path2819" stroke="#000000" stroke-width="5" d="M1489.147-160.992h-26.345l-22.581-6.727"/>
		<path id="path2821" stroke="#000000" stroke-width="5" d="M1485.384-103.81h-18.818l-30.108-6.727"/>
		<path id="path2823" stroke="#000000" stroke-width="5" d="M1481.62-60.083l-26.345,3.364l-18.818-3.364"/>
		<path id="path2825" stroke="#000000" stroke-width="5" d="M1481.62-6.265h-26.345l-30.108-10.091"/>
		<path id="path2827" stroke="#000000" stroke-width="5" d="M1474.093,40.827h-33.872l-26.345-13.455"/>
		<path id="path2829" stroke="#000000" stroke-width="5" d="M1481.62,91.281l-33.872-3.364l-45.162-10.091"/>
		<path id="path2831" stroke="#000000" stroke-width="5" d="M1474.093,138.373l-41.399-3.364l-33.872-6.727"/>
		<path id="path2833" stroke="#000000" stroke-width="5" d="M1470.329,178.736h-37.635l-37.635-6.727"/>
		<path id="path2835" stroke="#000000" stroke-width="5" d="M1470.329,222.464h-45.162l-30.108-10.091"/>
		<path id="path2917" stroke="#000000" stroke-width="5" d="M1088.965,289.499l-56.345-641.99"/>
		<path id="path2919" stroke="#000000" stroke-width="5" d="M1051.402,289.499l-41.32-641.99"/>
		<path id="path2921" stroke="#000000" stroke-width="5" d="M1130.285,263.966l-86.396-616.456"/>
		<path id="path2923" stroke="#000000" stroke-width="5" d="M1013.838-312.366h15.026l18.782-3.648"/>
		<path id="path2925" stroke="#000000" stroke-width="5" d="M1062.671-243.06l-18.782,7.295h-26.294"/>
		<path id="path2927" stroke="#000000" stroke-width="5" d="M1025.107-173.755h26.294l22.538-7.296"/>
		<path id="path2929" stroke="#000000" stroke-width="5" d="M1028.864-111.744h18.782l30.051-7.296"/>
		<path id="path2931" stroke="#000000" stroke-width="5" d="M1032.62-64.325l26.295,3.648l18.782-3.648"/>
		<path id="path2933" stroke="#000000" stroke-width="5" d="M1032.62-5.962h26.295l30.051-10.943"/>
		<path id="path2935" stroke="#000000" stroke-width="5" d="M1040.132,45.105h33.807l26.294-14.591"/>
		<path id="path2937" stroke="#000000" stroke-width="5" d="M1032.62,99.821l33.807-3.648l45.076-10.943"/>
		<path id="path2939" stroke="#000000" stroke-width="5" d="M1040.132,150.888l41.32-3.648l33.807-7.295"/>
		<path id="path2941" stroke="#000000" stroke-width="5" d="M1043.889,194.66h37.564l37.564-7.296"/>
		<path id="path2943" stroke="#000000" stroke-width="5" d="M1043.889,242.08h45.076l30.051-10.943"/>
		<path id="path2839" stroke="#000000" stroke-width="5" d="M908.599,310.452l56.345-641.99"/>
		<path id="path2841" stroke="#000000" stroke-width="5" d="M946.163,310.452l41.32-641.99"/>
		<path id="path2843" stroke="#000000" stroke-width="5" d="M867.279,284.918l86.396-616.456"/>
		<path id="path2845" stroke="#000000" stroke-width="5" d="M983.726-291.414h-15.026l-18.782-3.648"/>
		<path id="path2847" stroke="#000000" stroke-width="5" d="M934.894-222.108l18.782,7.295h26.295"/>
		<path id="path2849" stroke="#000000" stroke-width="5" d="M972.457-152.802h-26.294l-22.538-7.295"/>
		<path id="path2851" stroke="#000000" stroke-width="5" d="M968.701-90.792h-18.782l-30.051-7.295"/>
		<path id="path2853" stroke="#000000" stroke-width="5" d="M964.944-43.372l-26.294,3.648l-18.782-3.648"/>
		<path id="path2855" stroke="#000000" stroke-width="5" d="M964.944,14.991H938.65L908.599,4.048"/>
		<path id="path2857" stroke="#000000" stroke-width="5" d="M957.432,66.058h-33.807L897.33,51.467"/>
		<path id="path2859" stroke="#000000" stroke-width="5" d="M964.944,120.773l-33.807-3.648l-45.076-10.943"/>
		<path id="path2861" stroke="#000000" stroke-width="5" d="M957.432,171.84l-41.32-3.648l-33.807-7.296"/>
		<path id="path2863" stroke="#000000" stroke-width="5" d="M953.675,215.612h-37.564l-37.564-7.296"/>
		<path id="path2865" stroke="#000000" stroke-width="5" d="M953.675,263.032h-45.076l-30.051-10.943"/>
		<path id="path8085" stroke="#000000" stroke-width="5" d="M1011.634-660.862l479.019,54.823"/>
		<path id="path8051" stroke="#000000" stroke-width="5" d="M1520.407-415.265l757.967,324.56"/>
		<path id="path8049" stroke="#000000" stroke-width="5" d="M1525.249-334.118l665.305,287.272"/>
		<path id="path8047" stroke="#000000" stroke-width="5" d="M1581.135-206.929l494.987,219.292"/>
		<path id="path8073" stroke="#000000" stroke-width="5" d="M1698.228-42.46l-170.719-288.99"/>
		<path id="path8075" stroke="#000000" stroke-width="5" d="M1315.013-53.425l164.916-280.205"/>
		<path id="path2907" stroke="#000000" stroke-width="5" d="M1328.875,268.381L1013.412-45.758"/>
		<path id="path8063" stroke="#000000" stroke-width="5" d="M1227.193-53.425l-217.18-256.124"/>
		<path id="path8057" stroke="#000000" stroke-width="5" d="M1495.976,231.654L1002.705-50.775"/>
		<path id="path8061" stroke="#000000" stroke-width="5" d="M790.753-53.425l216.076-245.186"/>
		<path id="path6792" stroke="#000000" stroke-width="5" d="M1523.302-780.355c105.828,45.266,128.62,82.07,212.672,123.193
			c-112.243-13.911-144.735-67.406-217.102-47.688L1523.302-780.355z"/>
		<rect id="rect4979" x="1491.657" y="-780.356" stroke="#000000" stroke-width="5" width="30.347" height="1027.609"/>
		<rect id="rect4981" x="-11.157" y="119.326" stroke="#000000" stroke-width="5" width="514.729" height="14.842"/>
		<path id="path3113" stroke="#000000" stroke-width="5" d="M1024.247-357.386l-5.297-511.726"/>
		<path id="path3115" stroke="#000000" stroke-width="5" d="M1003.077-357.981l3.172-511.488"/>
		<path id="path3117" stroke="#000000" stroke-width="5" d="M1048.587-377.05l-23.286-491.884"/>
		<path id="path3119" stroke="#000000" stroke-width="5" d="M1006.712-837.482l8.468,0.238l10.735-2.606"/>
		<path id="path3121" stroke="#000000" stroke-width="5" d="M1031.377-781.563l-10.886,5.508l-14.819-0.416"/>
		<path id="path3123" stroke="#000000" stroke-width="5" d="M1007.35-727.01l14.819,0.416l13.003-5.448"/>
		<path id="path3125" stroke="#000000" stroke-width="5" d="M1006.911-677.609l10.585,0.297l17.237-5.329"/>
		<path id="path3127" stroke="#000000" stroke-width="5" d="M1007.074-639.817l14.669,3.318l10.736-2.605"/>
		<path id="path3129" stroke="#000000" stroke-width="5" d="M1004.669-593.378l14.819,0.416l17.388-8.232"/>
		<path id="path3131" stroke="#000000" stroke-width="5" d="M1006.798-552.624l19.053,0.535l15.421-11.194"/>
		<path id="path3133" stroke="#000000" stroke-width="5" d="M1000.309-509.206l19.204-2.368l25.856-7.994"/>
		<path id="path3135" stroke="#000000" stroke-width="5" d="M1002.438-468.452l23.438-2.249l19.354-5.27"/>
		<path id="path3137" stroke="#000000" stroke-width="5" d="M1002.751-433.563l21.171,0.594l21.471-5.211"/>
		<path id="path3139" stroke="#000000" stroke-width="5" d="M1000.797-395.831l25.405,0.713l17.387-8.232"/>
		<path id="path6784" stroke="#000000" stroke-width="5" d="M482.458,120.661c-110.108-18.465-415.284-1.476-485.517-4.58
			c70.301-62.397,496.74-2.137,486.492-65.142C502.016,90.975,480.605,73.375,482.458,120.661z"/>
		<path id="path6751" stroke="#000000" stroke-width="5" d="M1922.061-144.519l358.884,51.662l-655.738-278.179
			C1732.141-297.32,1858.647-227.993,1922.061-144.519z"/>
		<path id="path6753" stroke="#000000" stroke-width="5" d="M1837.879-92.857l358.883,51.662l-655.738-278.179
			C1647.959-245.658,1774.465-176.331,1837.879-92.857z"/>
		<path id="path6755" stroke="#000000" stroke-width="5" d="M1796.59-35.267l247.051,35.563l-451.402-191.495
			C1665.852-140.454,1752.937-92.73,1796.59-35.267z"/>
		<rect id="rect4983" x="989.027" y="-1064.57" stroke="#000000" stroke-width="5" width="26.584" height="1331.434"/>
		<path id="path6778" stroke="#000000" stroke-width="5" d="M1229.445-1.829c-126.633-21.238-195.486-38.562-426.691-4.377
			c12.896-17.057-13.298-14.69-13.013-34.543c245.187-28.109,335.998-7.041,445.649,0
			C1263.054-15.375,1247.028-18.45,1229.445-1.829z"/>
		<path id="path6786" stroke="#000000" stroke-width="5" d="M1615.154-529.717c-74.916-4.736-140.271-7.623-277.052,0
			c112.789-16.004,65.85-28.164,13.406-55.04c145.053-6.268,198.776-1.57,263.647,0
			C1642.072-566.41,1680.075-548.063,1615.154-529.717z"/>
		<path id="path6790" stroke="#000000" stroke-width="5" d="M1711.02,13.179c-110.108-18.465-206.164-29.722-407.198,0
			c40.573-38.325-11.456-26.65,4.839-57.03c213.192-24.439,292.152-6.121,387.495,0C1735.719,27.68,1708.337-32.092,1711.02,13.179z
			"/>
		<path id="path2871" stroke="#000000" stroke-width="5" d="M965.144-346.138l31.779-511.206"/>
		<path id="path2873" stroke="#000000" stroke-width="5" d="M986.329-346.138l23.305-511.206"/>
		<path id="path2875" stroke="#000000" stroke-width="5" d="M941.839-366.47l48.727-490.874"/>
		<path id="path2877" stroke="#000000" stroke-width="5" d="M1007.515-825.393h-8.474l-10.593-2.905"/>
		<path id="path2879" stroke="#000000" stroke-width="5" d="M979.974-770.206l10.593,5.809h14.83"/>
		<path id="path2881" stroke="#000000" stroke-width="5" d="M1001.159-715.019h-14.83l-12.711-5.809"/>
		<path id="path2883" stroke="#000000" stroke-width="5" d="M999.041-665.641h-10.593l-16.949-5.809"/>
		<path id="path2885" stroke="#000000" stroke-width="5" d="M996.922-627.882l-14.83,2.905l-10.593-2.905"/>
		<path id="path2887" stroke="#000000" stroke-width="5" d="M996.922-581.409h-14.83l-16.949-8.714"/>
		<path id="path2889" stroke="#000000" stroke-width="5" d="M992.685-540.745h-19.067l-14.83-11.618"/>
		<path id="path2891" stroke="#000000" stroke-width="5" d="M996.922-497.176l-19.067-2.905l-25.423-8.714"/>
		<path id="path2893" stroke="#000000" stroke-width="5" d="M992.685-456.512l-23.305-2.905l-19.067-5.809"/>
		<path id="path2895" stroke="#000000" stroke-width="5" d="M990.566-421.657h-21.186l-21.186-5.809"/>
		<path id="path2897" stroke="#000000" stroke-width="5" d="M990.566-383.898h-25.423l-16.949-8.714"/>
		<rect id="rect2741" x="1458.558" y="-356.279" stroke="#000000" stroke-width="5" width="101.933" height="18.869"/>
		<rect id="rect2777" x="1343.929" y="-587.564" stroke="#000000" stroke-width="5" width="286.028" height="15.506"/>
		<rect id="rect2779" x="1332.639" y="-330.16" stroke="#000000" stroke-width="5" width="331.191" height="18.608"/>
		<rect id="rect2781" x="1298.767" y="-54.149" stroke="#000000" stroke-width="5" width="413.989" height="12.405"/>
		<rect id="rect2783" x="783.163" y="-57.25" stroke="#000000" stroke-width="5" width="462.914" height="15.506"/>
		<rect id="rect2785" x="817.035" y="-327.059" stroke="#000000" stroke-width="5" width="398.934" height="18.608"/>
		<path id="path6776" stroke="#000000" stroke-width="5" d="M1207.654-270.852c-110.782-4.211-207.426-6.779-409.691,0
			c26.588-11.136,28.161-29.687,19.824-48.944c214.497-5.574,293.94-1.396,389.867,0
			C1226.438-298.839,1241.228-278.413,1207.654-270.852z"/>
		<rect id="rect2787" x="847.143" y="-590.665" stroke="#000000" stroke-width="5" width="338.718" height="15.506"/>
		<rect id="rect2789" x="873.487" y="-851.17" stroke="#000000" stroke-width="5" width="259.684" height="12.405"/>
		<path id="path8043" stroke="#000000" stroke-width="5" d="M828.01-320.96l172.979-48.244l212.898,43.858"/>
		<rect id="rect2867" x="941.931" y="-364.578" stroke="#000000" stroke-width="5" width="101.738" height="20.462"/>
		<path id="path2903" stroke="#000000" stroke-width="5" d="M459.499,187.749l41.399-65.126"/>
		<path id="path2905" stroke="#000000" stroke-width="5" d="M726.71,187.749l67.744-229.492"/>
		<path id="path20517" stroke="#000000" stroke-width="5" d="M1349.609-579.724l157.012-52.63l114.433,46.051"/>
		<path id="path8035" stroke="#000000" stroke-width="5" d="M1349.609-325.346l159.673-39.473l146.367,32.894"/>
		<path id="path8037" stroke="#000000" stroke-width="5" d="M857.283-584.11l146.367-41.665l170.318,32.894"/>
		<path id="path8041" stroke="#000000" stroke-width="5" d="M790.753-51.232l212.897-37.279l228.865,46.051"/>
		<path id="path8045" stroke="#000000" stroke-width="5" d="M1315.013-51.232l194.269-43.858l188.947,46.051"/>
		<path id="path8059" stroke="#000000" stroke-width="5" d="M1509.282,229.461l186.285-57.016"/>
		<path id="path8065" stroke="#000000" stroke-width="5" d="M1192.597-331.925l-191.048-238.598"/>
		<path id="path8067" stroke="#000000" stroke-width="5" d="M820.026-323.153l178.845-242.998"/>
		<path id="path6774" stroke="#000000" stroke-width="5" d="M1174.091-538.828c-91.313-3.645-170.973-5.867-337.691,0
			c32.524-4.579,15.267-26.317,16.34-42.358c176.801-4.824,242.283-1.208,321.351,0
			C1206.901-567.067,1209.079-548.305,1174.091-538.828z"/>
		<path id="path8069" stroke="#000000" stroke-width="5" d="M1336.302-329.732l163.19-197.01"/>
		<path id="path8071" stroke="#000000" stroke-width="5" d="M1652.988-329.732l-134.735-201.4"/>
		<path id="path8077" stroke="#000000" stroke-width="5" d="M851.961-584.11l159.594-273.635"/>
		<path id="path8079" stroke="#000000" stroke-width="5" d="M1168.646-592.882l-158.205-269.24"/>
		<path id="path5858" stroke="#000000" stroke-width="5" d="M1125.64-790.64c-74.962-4.096-140.357-6.594-277.222,0
			c43.49-20.032,23.85-39.835,13.414-47.607c145.142-5.422,198.898-1.358,263.808,0
			C1152.574-822.378,1190.601-806.509,1125.64-790.64z"/>
		<path id="path8081" stroke="#000000" stroke-width="5" d="M585.839,179.024l-55.886-57.016"/>
		<path id="path20534" stroke="#000000" stroke-width="5" d="M990.344,231.654L500.68,124.201"/>
		<path id="path6788" stroke="#000000" stroke-width="5" d="M1658.652-252.37c-91.212-5.044-170.783-8.119-337.316,0
			c44.438-25.872,32.104-35.37,16.322-58.617c176.605-6.676,242.014-1.672,320.994,0
			C1691.425-291.448,1737.695-271.909,1658.652-252.37z"/>
		<path id="path3141" stroke="#000000" stroke-width="5" d="M519.506-784.771l2.973,2.188L34.948,112.471l493.476-439.867"/>
		<path id="path20540" stroke="#000000" stroke-width="5" d="M614.353,206.096l-56.453-545.82"/>
		<path id="path20542" stroke="#000000" stroke-width="5" d="M576.717,206.096l-41.399-545.82"/>
		<path id="path20544" stroke="#000000" stroke-width="5" d="M655.751,184.387L569.19-339.724"/>
		<path id="path20546" stroke="#000000" stroke-width="5" d="M539.082-305.61h15.054l18.818-3.101"/>
		<path id="path20548" stroke="#000000" stroke-width="5" d="M588.008-246.687l-18.818,6.203h-26.345"/>
		<path id="path20550" stroke="#000000" stroke-width="5" d="M550.372-187.763h26.345l22.581-6.202"/>
		<path id="path20552" stroke="#000000" stroke-width="5" d="M554.136-135.042h18.818l30.108-6.202"/>
		<path id="path20554" stroke="#000000" stroke-width="5" d="M557.899-94.725l26.345,3.101l18.818-3.101"/>
		<path id="path20556" stroke="#000000" stroke-width="5" d="M557.899-45.105h26.345l30.108-9.304"/>
		<path id="path20558" stroke="#000000" stroke-width="5" d="M565.427-1.688h33.872l26.345-12.405"/>
		<path id="path20560" stroke="#000000" stroke-width="5" d="M557.899,44.831l33.872-3.101l45.162-9.304"/>
		<path id="path20562" stroke="#000000" stroke-width="5" d="M565.427,88.248l41.399-3.101l33.872-6.202"/>
		<path id="path20564" stroke="#000000" stroke-width="5" d="M569.19,125.463h37.635l37.635-6.203"/>
		<path id="path20566" stroke="#000000" stroke-width="5" d="M569.19,165.78h45.162l30.108-9.304"/>
		<path id="path20570" stroke="#000000" stroke-width="5" d="M435.904,262.83l56.453-592.002"/>
		<path id="path20572" stroke="#000000" stroke-width="5" d="M473.539,262.83l41.399-592.002"/>
		<path id="path20574" stroke="#000000" stroke-width="5" d="M394.506,239.285l86.561-568.457"/>
		<path id="path20576" stroke="#000000" stroke-width="5" d="M511.175-292.172h-15.054l-18.818-3.364"/>
		<path id="path20578" stroke="#000000" stroke-width="5" d="M462.249-228.263l18.818,6.728h26.345"/>
		<path id="path20580" stroke="#000000" stroke-width="5" d="M499.884-164.353h-26.345l-22.581-6.728"/>
		<path id="path20582" stroke="#000000" stroke-width="5" d="M496.121-107.171h-18.818l-30.108-6.727"/>
		<path id="path20584" stroke="#000000" stroke-width="5" d="M492.357-63.444l-26.345,3.363l-18.818-3.363"/>
		<path id="path20586" stroke="#000000" stroke-width="5" d="M492.357-9.625h-26.345l-30.108-10.091"/>
		<path id="path20588" stroke="#000000" stroke-width="5" d="M484.83,37.466h-33.872l-26.345-13.455"/>
		<path id="path20590" stroke="#000000" stroke-width="5" d="M492.357,87.92l-33.872-3.364l-45.162-10.091"/>
		<path id="path20592" stroke="#000000" stroke-width="5" d="M484.83,135.011l-41.399-3.364l-33.872-6.727"/>
		<path id="path20594" stroke="#000000" stroke-width="5" d="M481.067,175.376h-37.635l-37.635-6.728"/>
		<path id="path20596" stroke="#000000" stroke-width="5" d="M481.067,219.103h-45.162l-30.108-10.091"/>
		<path id="path20598" stroke="#000000" stroke-width="5" d="M708.966-45.821l-170.719-288.99"/>
		<path id="path20600" stroke="#000000" stroke-width="5" d="M325.75-56.786l164.916-280.205"/>
		<path id="path20602" stroke="#000000" stroke-width="5" d="M534.039-783.716c105.827,45.266,128.619,82.071,212.672,123.193
			c-112.243-13.911-144.735-67.406-217.102-47.688L534.039-783.716z"/>
		<rect id="rect20604" x="510.077" y="-783.717" stroke="#000000" stroke-width="5" width="22.664" height="1127.492"/>
		<path id="path20606" stroke="#000000" stroke-width="5" d="M625.891-533.077c-74.916-4.736-140.272-7.623-277.052,0
			c112.789-16.004,65.85-28.165,13.406-55.041c145.053-6.268,198.777-1.57,263.647,0
			C652.809-569.771,690.812-551.424,625.891-533.077z"/>
		<path id="path20608" stroke="#000000" stroke-width="5" d="M721.757,9.818c-110.108-18.465-206.164-29.722-407.198,0
			c40.573-38.325-11.456-26.65,4.839-57.03c213.192-24.439,292.152-6.121,387.495,0C746.456,24.319,719.075-35.453,721.757,9.818z"
			/>
		<rect id="rect20610" x="469.296" y="-359.64" stroke="#000000" stroke-width="5" width="101.933" height="18.869"/>
		<rect id="rect20612" x="354.667" y="-590.925" stroke="#000000" stroke-width="5" width="286.028" height="15.506"/>
		<rect id="rect20614" x="343.376" y="-333.521" stroke="#000000" stroke-width="5" width="331.191" height="18.608"/>
		<rect id="rect20616" x="309.504" y="-57.51" stroke="#000000" stroke-width="5" width="413.989" height="12.405"/>
		<path id="path20618" stroke="#000000" stroke-width="5" d="M360.346-583.085l157.012-52.63l114.432,46.051"/>
		<path id="path20620" stroke="#000000" stroke-width="5" d="M360.346-328.707l159.673-39.472l146.367,32.894"/>
		<path id="path20622" stroke="#000000" stroke-width="5" d="M325.75-54.593l194.269-43.858L708.966-52.4"/>
		<path id="path20624" stroke="#000000" stroke-width="5" d="M520.019,226.101l186.285-57.016"/>
		<path id="path20626" stroke="#000000" stroke-width="5" d="M347.04-333.093l163.19-197.01"/>
		<path id="path20628" stroke="#000000" stroke-width="5" d="M663.725-333.093l-134.735-201.4"/>
		<path id="path20630" stroke="#000000" stroke-width="5" d="M669.389-255.731c-91.212-5.044-170.783-8.119-337.316,0
			c44.438-25.872,32.104-35.37,16.322-58.617c176.604-6.676,242.014-1.672,320.994,0
			C702.162-294.809,748.432-275.27,669.389-255.731z"/>
		<path id="path4104" stroke="#000000" stroke-width="5" d="M273.808,513L169.951,311.805
			C78.107,270.989,56.662,219.652,44.457,166.933c148.479,12.778,289.946,21.888,415.428,22.637l43.274,72.436
			c381.691,11.823,787.116,34.754,1138.1-81.49v-76.964c298.47-40.87,548.172-132.76,765.945-258.054l25.964,40.745
			c-102.573,55.731-246.391,124.403-376.137,181.705c-104.516,46.157-178.145,147.312-316.243,467.483L273.808,513z"/>
		<path id="path20634" stroke="#000000" stroke-width="5" d="M1645.832,179.044l374.871-92.359"/>
		<path id="path20636" stroke="#000000" stroke-width="5" d="M70.287,233.374l434.633,32.597"/>
		<path id="path20638" stroke="#000000" stroke-width="5" d="M1895.745,206.209C1385.052,343.843,896.09,361.953,184.379,320.3"/>
		<path id="path20640" stroke="#000000" stroke-width="5" d="M1770.788,161.834c15.506,0,28.076,13.178,28.076,29.434
			s-12.57,29.434-28.076,29.434c-15.506,0-28.076-13.178-28.076-29.434S1755.282,161.834,1770.788,161.834z"/>
	</g>
	<g id="layer5" transform="translate(-36.47977,-422.85962)">
	</g>
</g>
</svg>
